<svg width="639" height="458" viewBox="0 0 639 458" fill="none" xmlns="http://www.w3.org/2000/svg">
<path d="M406.687 345.683C424.225 316.389 461.806 298.694 495.839 295.957C538.891 292.496 580.582 268.213 605.714 227.186C646.387 160.791 628.292 75.6853 565.299 37.0969C502.306 -1.4914 418.269 21.0504 377.596 87.4454C376.601 89.0697 374.355 89.3878 372.956 88.0957C363.665 79.519 353.418 71.7308 342.249 64.8888C247.289 6.7183 121.663 38.9739 61.6546 136.934C1.64631 234.894 29.98 361.462 124.94 419.633C219.899 477.803 345.526 445.547 405.534 347.588C405.922 346.954 406.307 346.319 406.687 345.683Z" fill="#FBBD58"/>
</svg>
