<svg width="701" height="480" viewBox="0 0 701 480" fill="none" xmlns="http://www.w3.org/2000/svg">
<path d="M475 436C592.084 436 687 341.756 687 225.5C687 109.244 592.084 15 475 15C386.827 15 311.227 68.447 279.267 144.492C269.806 167.003 245.918 182 221.5 182C207.094 182 193.356 175.408 182.834 165.567C164.604 148.518 139.595 138 112 138C56.2192 138 11 180.981 11 234C11 269.223 30.9572 300.015 60.71 316.718C63.3434 318.196 65 320.98 65 324C65 402.424 135.067 466 221.5 466C230.699 466 239.712 465.28 248.475 463.898C318.256 452.898 404.357 436 475 436Z" fill="white"/>
</svg>
